HIERARCHY
ROOT SpineBase
{
  OFFSET 0.000000 0.000000 0.000000
  CHANNELS 6 Xposition Yposition Zposition Zrotation Xrotation Yrotation
  JOINT SpineMid
  {
    OFFSET -0.000000 27.800871 0.000000
    CHANNELS 3 Zrotation Xrotation Yrotation
    JOINT SpineShoulder
    {
      OFFSET 0.366474 20.627438 -0.424927
      CHANNELS 3 Zrotation Xrotation Yrotation
      JOINT Neck
      {
        OFFSET 0.144750 6.846130 -0.379252
        CHANNELS 3 Zrotation Xrotation Yrotation
        JOINT Head
        {
          OFFSET 0.426748 13.154700 -0.648784
          CHANNELS 3 Zrotation Xrotation Yrotation
          End Site
          {
            OFFSET 0 0 0
          }
        }
      }
      JOINT ShoulderLeft
      {
        OFFSET -12.459199 2.050280 -4.377519
        CHANNELS 3 Zrotation Xrotation Yrotation
        JOINT ElbowLeft
        {
          OFFSET -4.222422 -20.103976 0.534121
          CHANNELS 3 Zrotation Xrotation Yrotation
          JOINT WristLeft
          {
            OFFSET 10.941097 -11.575971 -13.907906
            CHANNELS 3 Zrotation Xrotation Yrotation
            JOINT HandLeft
            {
              OFFSET -1.563338 -3.745576 3.057080
              CHANNELS 3 Zrotation Xrotation Yrotation
              JOINT HandTipLeft
              {
                OFFSET -1.235421 -5.508674 -4.625906
                CHANNELS 3 Zrotation Xrotation Yrotation
                End Site
                {
                  OFFSET 0 0 0
                }
              }
              JOINT ThumbLeft
              {
                OFFSET 5.099412 -1.226255 1.809532
                CHANNELS 3 Zrotation Xrotation Yrotation
                End Site
                {
                  OFFSET 0 0 0
                }
              }
            }
          }
        }
      }
      JOINT ShoulderRight
      {
        OFFSET 10.643867 -1.698335 2.404428
        CHANNELS 3 Zrotation Xrotation Yrotation
        JOINT ElbowRight
        {
          OFFSET -4.496953 -25.873920 -10.928538
          CHANNELS 3 Zrotation Xrotation Yrotation
          JOINT WristRight
          {
            OFFSET 2.179080 -21.720696 1.789229
            CHANNELS 3 Zrotation Xrotation Yrotation
            JOINT HandRight
            {
              OFFSET -1.125480 -4.692535 1.586501
              CHANNELS 3 Zrotation Xrotation Yrotation
              JOINT HandTipRight
              {
                OFFSET -0.795745 -4.026721 -0.566647
                CHANNELS 3 Zrotation Xrotation Yrotation
                End Site
                {
                  OFFSET 0 0 0
                }
              }
              JOINT ThumbRight
              {
                OFFSET 1.994066 -0.747692 -2.635633
                CHANNELS 3 Zrotation Xrotation Yrotation
                End Site
                {
                  OFFSET 0 0 0
                }
              }
            }
          }
        }
      }
    }
  }
  JOINT HipLeft
  {
    OFFSET -6.799197 1.067677 -4.600349
    CHANNELS 3 Zrotation Xrotation Yrotation
    JOINT KneeLeft
    {
      OFFSET -1.348664 -26.012582 1.366229
      CHANNELS 3 Zrotation Xrotation Yrotation
      JOINT AnkleLeft
      {
        OFFSET -20.314416 -32.820501 0.792649
        CHANNELS 3 Zrotation Xrotation Yrotation
        JOINT FootLeft
        {
          OFFSET 0.169537 -4.836970 -7.041066
          CHANNELS 3 Zrotation Xrotation Yrotation
          End Site
          {
            OFFSET 0 0 0
          }
        }
      }
    }
  }
  JOINT HipRight
  {
    OFFSET 5.282768 0.464931 -1.339133
    CHANNELS 3 Zrotation Xrotation Yrotation
    JOINT KneeRight
    {
      OFFSET -14.949323 -32.767524 1.199463
      CHANNELS 3 Zrotation Xrotation Yrotation
      JOINT AnkleRight
      {
        OFFSET -4.833214 -32.758040 7.770183
        CHANNELS 3 Zrotation Xrotation Yrotation
        JOINT FootRight
        {
          OFFSET 1.320038 -3.646936 -11.688141
          CHANNELS 3 Zrotation Xrotation Yrotation
          End Site
          {
            OFFSET 0 0 0
          }
        }
      }
    }
  }
}
MOTION
Frames: 14
Frame Time: 0.033333
101.375364 68.987544 384.265290 -2.235750 1.024304 -20.219143 2.451930 -0.187896 20.243152 -0.000000 0.000000 0.000000 -6.151168 -1.823713 -0.341630 0.000000 0.000000 0.000000 -3.719799 2.529263 -0.544623 0.833888 -7.092081 -0.373095 4.402808 3.387580 2.348814 14.005893 -24.744495 -7.771318 0.000000 0.000000 0.000000 0.000000 0.000000 0.000000 -12.899828 0.660625 5.310422 -19.246765 13.461609 -3.168493 30.643329 -2.968238 1.704871 -7.594201 -8.435326 2.867972 0.000000 0.000000 0.000000 0.000000 0.000000 0.000000 10.443940 -2.024222 20.992471 -9.638135 4.955136 -0.394746 7.906318 18.670550 -5.892729 0.000000 0.000000 0.000000 7.908834 0.273339 21.115027 -9.192502 1.076722 -1.567394 4.046926 -5.226970 -1.832393 0.000000 0.000000 0.000000
100.858520 69.015701 384.076997 -3.108347 1.187380 -20.012127 3.326820 -0.050752 20.045818 -0.000000 0.000000 0.000000 -6.634259 -1.953693 -0.376400 0.000000 0.000000 0.000000 -1.034806 4.547917 -0.941285 -3.093725 -10.779325 -0.362951 2.783010 2.288229 1.161526 22.779983 -37.935996 -4.162106 0.000000 0.000000 0.000000 0.000000 0.000000 0.000000 -12.866261 0.659247 5.296588 -19.234260 13.369680 -3.191512 27.642453 -1.175767 -0.048447 -6.240655 -11.815088 4.368655 0.000000 0.000000 0.000000 0.000000 0.000000 0.000000 9.214145 -1.970190 20.604385 -4.286913 2.666179 0.428232 6.347240 16.000872 -9.330380 0.000000 0.000000 0.000000 8.936205 0.443869 20.910038 -8.830187 0.940480 -1.445242 3.378752 -8.833876 -3.449884 0.000000 0.000000 0.000000
100.361598 69.032889 383.973197 -3.949140 1.281184 -20.087632 2.924539 -0.054220 20.098119 -0.172279 -0.617022 -0.047585 -5.473244 -2.331995 -0.302123 0.000000 0.000000 0.000000 0.915696 5.838834 -1.067411 -7.013768 -15.180220 -0.233779 6.976218 3.121352 1.624863 25.346080 -52.535375 0.588838 0.000000 0.000000 0.000000 0.000000 0.000000 0.000000 -11.456361 0.969574 5.443742 -19.222663 13.371217 -3.190771 25.846041 -2.159685 -0.703067 -4.985427 -9.995659 4.957375 0.000000 0.000000 0.000000 0.000000 0.000000 0.000000 6.690671 -1.833271 20.394914 2.149309 -0.051891 1.572781 4.544320 13.666172 -12.552514 0.000000 0.000000 0.000000 10.186118 0.638271 21.061003 -8.793149 1.115191 -1.422650 3.985285 -3.032067 -4.376749 0.000000 0.000000 0.000000
99.785621 68.917387 383.854641 -4.900060 1.368648 -19.427908 3.125163 -0.064034 19.430630 -0.334985 -0.605179 -0.088316 -4.823088 -3.499927 -0.309862 0.000000 0.000000 0.000000 1.920094 6.118448 -1.089293 -11.480449 -19.527707 0.042742 11.623026 7.446679 -0.670705 30.679414 -63.389954 12.987442 0.000000 0.000000 0.000000 0.000000 0.000000 0.000000 -10.519519 0.834272 5.477715 -19.210211 13.384810 -3.185851 24.377912 -3.211361 -1.208877 -5.175880 -7.597610 5.326241 0.000000 0.000000 0.000000 0.000000 0.000000 0.000000 3.890087 -1.553573 19.439092 8.573035 -2.864571 2.994647 2.573060 12.023887 -15.135529 0.000000 0.000000 0.000000 11.234472 0.822918 20.378959 -8.415460 0.948675 -1.291770 3.560683 -0.877138 -3.845630 0.000000 0.000000 0.000000
99.316425 68.564766 383.816626 -5.702020 1.254633 -18.545470 3.203134 -0.068416 18.530487 -0.343148 -0.582869 -0.116639 -5.172151 -4.480390 -0.388436 0.000000 0.000000 0.000000 2.994929 6.163421 -1.059161 -17.522446 -23.967006 0.858871 17.032020 13.434721 -6.104287 45.119751 -70.043433 32.638458 0.000000 0.000000 0.000000 0.000000 0.000000 0.000000 -9.790763 0.848143 5.529331 -19.204791 13.389183 -3.187682 24.995860 -6.488537 -0.376325 -6.630395 -3.966217 4.878809 0.000000 0.000000 0.000000 0.000000 0.000000 0.000000 0.738943 -1.045677 18.276494 15.983001 -5.589309 4.806150 -0.655854 11.654028 -16.915532 0.000000 0.000000 0.000000 11.907709 0.937625 19.482598 -7.882133 0.944983 -1.206334 3.083463 1.644701 -2.781251 0.000000 0.000000 0.000000
98.979117 68.206919 383.758278 -6.418699 1.260722 -18.410433 3.046116 -0.104926 18.378875 -0.262358 -0.474503 -0.145342 -5.241766 -5.600718 -0.480598 0.000000 0.000000 0.000000 3.844272 5.451205 -0.889829 -23.330326 -27.400362 2.383854 24.641766 20.475045 -13.648131 49.265724 -69.695090 40.719766 0.000000 0.000000 0.000000 0.000000 0.000000 0.000000 -9.014361 0.683457 5.556792 -18.387790 13.156128 -3.302815 21.362567 -10.481849 -1.347939 -0.093916 -0.962254 5.339137 0.000000 0.000000 0.000000 0.000000 0.000000 0.000000 -1.536053 -1.083816 17.948206 21.142413 -6.690867 5.833252 -2.732795 11.714625 -17.472050 0.000000 0.000000 0.000000 12.612201 0.975198 19.396735 -7.567013 1.151868 -1.210805 2.798187 -0.471299 -3.719935 0.000000 0.000000 0.000000
98.743648 67.792677 383.653816 -6.942134 1.097224 -17.724901 2.703194 -0.212158 17.665717 -0.126211 -0.407238 -0.169048 -6.067463 -5.802247 -0.599500 0.000000 0.000000 0.000000 3.884531 4.667266 -0.663177 -27.499905 -29.781411 4.461474 36.509210 27.659811 -22.514615 28.936815 -63.182933 27.462488 0.000000 0.000000 0.000000 0.000000 0.000000 0.000000 -8.295087 0.728790 5.612058 -18.678038 13.374315 -3.220003 20.472118 -14.038255 -1.493890 4.850900 0.584170 4.864059 0.000000 0.000000 0.000000 0.000000 0.000000 0.000000 -3.326881 -0.955283 17.128986 24.425308 -6.980997 6.199050 -4.226191 12.644117 -16.600962 0.000000 0.000000 0.000000 13.233220 0.612757 18.949058 -7.280701 1.711889 -1.365389 2.377942 -0.366306 -3.229211 0.000000 0.000000 0.000000
98.700614 67.351576 383.515457 -7.277725 0.904368 -17.256561 2.238537 -0.258561 17.170104 0.050193 -0.350079 -0.187030 -6.324720 -6.941743 -0.727506 0.000000 0.000000 0.000000 4.484679 4.218465 -0.535342 -32.689397 -32.954688 6.090503 50.360268 32.822555 -33.019939 16.643959 -58.107467 21.413291 0.000000 0.000000 0.000000 0.000000 0.000000 0.000000 -7.698065 0.749948 5.651863 -19.393290 14.155520 -2.897534 19.532570 -17.585478 -2.003729 12.414179 -1.097704 4.385419 0.000000 0.000000 0.000000 0.000000 0.000000 0.000000 -5.090118 -0.984079 16.537138 27.428454 -7.195563 6.588109 -5.466999 14.698430 -15.787316 0.000000 0.000000 0.000000 13.543389 0.180459 18.734660 -7.164203 2.548389 -1.630405 2.376364 -0.589879 -3.012063 0.000000 0.000000 0.000000
98.715177 66.800626 383.420359 -7.514506 0.712050 -16.873493 1.864479 -0.213754 16.766732 0.314968 -0.273511 -0.191314 -8.348924 -6.326934 -0.911125 0.000000 0.000000 0.000000 6.345606 4.354919 -0.576881 -38.614123 -36.079887 6.640354 59.972074 36.275852 -42.904122 20.438720 -57.192671 25.290127 0.000000 0.000000 0.000000 0.000000 0.000000 0.000000 -7.390280 0.700026 5.661955 -20.919475 14.258332 -2.819572 20.128879 -17.522958 -2.260114 14.272248 -4.944874 5.291108 0.000000 0.000000 0.000000 0.000000 0.000000 0.000000 -5.761178 -1.256674 16.087225 28.052359 -6.568326 6.208213 -5.533796 17.093680 -14.613565 0.000000 0.000000 0.000000 13.532109 -0.221882 18.549201 -7.097321 3.309515 -1.901603 2.708825 -0.944092 -3.045079 0.000000 0.000000 0.000000
98.676622 66.160469 383.297692 -7.847063 0.666915 -16.530232 1.498284 -0.170774 16.411363 0.455587 -0.196477 -0.205588 -9.876733 -4.940474 -0.964634 0.000000 0.000000 0.000000 6.215471 4.626944 -0.621486 -40.771688 -38.368725 6.630882 83.920729 39.106756 -55.524916 18.338990 -69.035391 28.147287 0.000000 0.000000 0.000000 0.000000 0.000000 0.000000 -6.866813 0.513048 5.663338 -22.978911 13.837531 -2.955919 21.622890 -14.022515 -2.456811 14.857457 -12.598538 7.543414 0.000000 0.000000 0.000000 0.000000 0.000000 0.000000 -5.162784 -1.675552 15.735665 26.492883 -5.400504 5.300144 -4.520205 19.662410 -13.358748 0.000000 0.000000 0.000000 13.893355 -0.892859 18.550359 -6.943479 4.156280 -2.196564 2.911830 -1.288330 -3.658488 0.000000 0.000000 0.000000
98.707749 65.691336 383.221769 -8.060368 0.676632 -16.280552 1.154231 -0.105195 16.157378 0.498216 -0.113115 -0.219125 -10.816899 -3.215317 -0.891780 0.000000 0.000000 0.000000 5.258711 5.100671 -0.703468 -40.094731 -39.445186 6.245759 102.969755 32.167271 -47.436885 -52.341368 -76.105465 -35.736512 0.000000 0.000000 0.000000 0.000000 0.000000 0.000000 -6.388056 0.259024 5.652710 -25.197759 13.003384 -3.298549 24.682363 -6.959344 -2.199370 13.140639 -22.289726 10.172276 0.000000 0.000000 0.000000 0.000000 0.000000 0.000000 -6.371324 -1.889540 15.376367 26.982826 -5.010740 4.955287 -3.944310 22.791645 -12.184110 0.000000 0.000000 0.000000 13.937229 -1.288299 18.458814 -6.735955 4.459346 -2.329324 3.235511 -1.580918 -4.633927 0.000000 0.000000 0.000000
98.557108 65.428994 383.075900 -8.592058 0.911133 -16.481407 1.046869 -0.051277 16.365407 0.484197 -0.141753 -0.243141 -10.330762 -1.871030 -0.734770 0.000000 0.000000 0.000000 3.621455 5.691311 -0.776765 -35.914597 -38.930871 5.776731 86.325521 21.171965 -22.496439 -40.423357 -44.566345 -30.244191 0.000000 0.000000 0.000000 0.000000 0.000000 0.000000 -5.752484 -0.017268 5.648900 -27.316057 11.891701 -3.813825 29.359095 1.212858 -1.483745 5.248422 -30.558920 10.334609 0.000000 0.000000 0.000000 0.000000 0.000000 0.000000 -6.803788 -2.388694 15.465676 29.826039 -5.761534 5.868260 -3.812535 19.908270 -15.618096 0.000000 0.000000 0.000000 14.908653 -1.514894 18.847583 -7.210837 4.927565 -2.493446 3.757017 -2.109647 -5.890955 0.000000 0.000000 0.000000
98.500968 65.355583 383.081840 -8.955919 1.051539 -16.670664 0.871221 -0.001716 16.559280 0.450285 -0.118585 -0.262809 -9.270593 -1.471382 -0.643971 0.000000 0.000000 0.000000 1.493542 6.325066 -0.832180 -32.800630 -39.739488 4.370038 86.894586 18.044011 -14.735748 -45.959156 -33.014912 -32.571914 0.000000 0.000000 0.000000 0.000000 0.000000 0.000000 -5.197972 -0.272751 5.646680 -29.066890 10.639914 -4.444210 33.884963 7.327382 -0.891020 -3.114585 -35.984366 8.253224 0.000000 0.000000 0.000000 0.000000 0.000000 0.000000 -7.408325 -2.539170 15.572502 31.174295 -6.117726 6.218177 -3.491293 19.682495 -16.693093 0.000000 0.000000 0.000000 16.032338 -1.683981 19.269279 -7.960206 5.567155 -2.687566 4.128393 -2.600173 -6.738341 0.000000 0.000000 0.000000
98.413815 65.290473 383.155857 -9.340491 1.134772 -16.239218 0.694419 0.045002 16.129905 0.284820 -0.013625 -0.287412 -7.704024 -1.940837 -0.614886 0.000000 0.000000 0.000000 -0.107128 7.212505 -0.907451 -29.963499 -40.647768 3.137756 88.201317 21.772540 -17.454670 -47.564178 -28.098197 -29.773862 0.000000 0.000000 0.000000 0.000000 0.000000 0.000000 -4.490540 -0.558785 5.652339 -30.220361 9.384418 -5.105384 38.021130 10.881996 -0.291250 -14.975001 -37.188844 3.762119 0.000000 0.000000 0.000000 0.000000 0.000000 0.000000 -7.538409 -2.297945 15.135595 31.671991 -6.454084 6.445706 -3.181925 19.494102 -17.253567 0.000000 0.000000 0.000000 16.700293 -1.888442 18.962468 -8.010014 5.749018 -2.730698 4.066429 -2.758739 -7.289340 0.000000 0.000000 0.000000
